<svg version="1.1" viewBox="0.0 0.0 960.0 540.0" fill="none" stroke="none" stroke-linecap="square" stroke-miterlimit="10" xmlns:xlink="http://www.w3.org/1999/xlink" xmlns="http://www.w3.org/2000/svg"><clipPath id="g22429125799_0_0.0"><path d="m0 0l960.0 0l0 540.0l-960.0 0l0 -540.0z" clip-rule="nonzero"/></clipPath><g clip-path="url(#g22429125799_0_0.0)"><path fill="#445588" d="m0 0l960.0 0l0 540.0l-960.0 0z" fill-rule="evenodd"/><path fill="#000000" fill-opacity="0.0" d="m81.55905 40.047245l796.88184 0l0 459.90552l-796.88184 0z" fill-rule="evenodd"/><path fill="#d79921" d="m290.76773 444.0625q-48.53125 0 -84.703125 -19.828125q-36.15625 -19.828125 -56.0 -57.390625q-19.828125 -37.578125 -19.828125 -90.78125q0 -54.125 21.703125 -91.6875q21.703125 -37.5625 58.5625 -57.390625q36.875 -19.84375 81.671875 -19.84375q30.796875 0 52.953125 4.90625q22.171875 4.890625 35.9375 10.734375q13.765625 5.828125 18.4375 9.09375l-21.0 58.328125q-14.9375 -7.9375 -34.3125 -13.765625q-19.359375 -5.828125 -42.21875 -5.828125q-33.59375 0 -54.828125 12.828125q-21.234375 12.828125 -31.265625 36.40625q-10.03125 23.5625 -10.03125 56.21875q0 31.28125 10.03125 55.3125q10.03125 24.03125 29.859375 37.328125q19.828125 13.296875 49.703125 13.296875q12.125 0 20.75 -0.46875q8.640625 -0.46875 15.1875 -1.859375l0 -112.46875l72.796875 0l0 160.0625q-13.078125 5.140625 -42.015625 10.96875q-28.921875 5.828125 -71.390625 5.828125zm171.73328 -6.0625q1.859375 -38.265625 4.421875 -81.421875q2.578125 -43.171875 5.84375 -86.796875q3.265625 -43.640625 7.0 -83.53125q3.734375 -39.90625 8.40625 -71.640625l69.53128 0q8.390625 15.390625 19.125 38.03125q10.734375 22.625 22.625 49.234375q11.90625 26.59375 23.796875 53.890625q11.90625 27.296875 22.171875 51.578125q10.265625 -24.28125 22.171875 -51.578125q11.90625 -27.296875 23.796875 -53.890625q11.90625 -26.609375 22.640625 -49.234375q10.734375 -22.640625 19.125 -38.03125l66.265625 0q4.671875 31.734375 8.40625 71.640625q3.734375 39.890625 7.0 83.53125q3.265625 43.625 5.828125 86.796875q2.5625 43.15625 4.4375 81.421875l-70.9375 0q-0.9375 -31.734375 -2.34375 -66.96875q-1.390625 -35.234375 -3.265625 -72.796875q-1.859375 -37.5625 -5.125 -74.890625q-6.53125 15.859375 -14.46875 34.0625q-7.921875 18.203125 -16.328125 37.578125q-8.390625 19.359375 -16.328125 38.03125q-7.9375 18.65625 -14.9375 35.21875q-7.0 16.5625 -12.125 28.703125l-50.875 0q-5.125 -12.140625 -12.125 -28.703125q-7.0 -16.5625 -14.9375 -35.21875q-7.9375 -18.671875 -16.34375 -38.03125q-8.390625 -19.375 -16.328125 -37.578125q-7.921875 -18.203125 -14.453125 -34.0625q-2.8125 37.328125 -4.90625 74.890625q-2.09375 37.5625 -3.5 72.796875q-1.40625 35.234375 -2.328125 66.96875l-70.93753 0z" fill-rule="nonzero"/></g></svg>